<svg id="SvgjsSvg1001" width="288" height="288" xmlns="http://www.w3.org/2000/svg" version="1.1" xmlns:xlink="http://www.w3.org/1999/xlink" xmlns:svgjs="http://svgjs.com/svgjs"><defs id="SvgjsDefs1002"></defs><g id="SvgjsG1008"><svg xmlns="http://www.w3.org/2000/svg" viewBox="424.82 104.89 247.429 313.5" width="288" height="288"><g transform="matrix(2.09 0 0 2.09 542.9 261.64)" fill="#000000" class="color000 svgShape"><path fill="#a5b0b6" d="m 60.36,92.64 a 37.18,37.18 0 0 0 -4.89,50.48 l 23.25,-20.5 9.08,-8 23.25,-20.5 A 37.19,37.19 0 0 0 60.36,92.64 Z" transform="matrix(.6 0 0 .6 -55.892 -74.68)" class="color7cdf7c svgShape"></path><path fill="#a5b0b6" d="m 139.92,68.66 46.9,40.89 -8.69,-65.86 h -29.4 a 46.2,46.2 0 0 0 -92.27,0 H 27.06 L 0,248.82 H 80.5 L 26.6,168.57 48.66,149.12 a 46.2,46.2 0 0 1 69.2,-61 v 0 l 24,23.7 2.86,-2.15 -24.06,-24 z m -31.27,-25 h -43.1 a 37.13,37.13 0 0 1 74.09,0 z" transform="matrix(.6 0 0 .6 -55.856 -74.648)" class="color7cdf7c svgShape"></path><path fill="#a5b0b6" d="m 13.49,11 -24.17,-24.14 -2.82,2.49 24.13,23.8 z" transform="matrix(.6 0 0 .6 -14.55 17.7)" class="color7cdf7c svgShape"></path></g><g style="white-space:pre" fill="#5e6c73" stroke="#ffffff" stroke-opacity="0" aria-label="Oni Sell" font-family="en_9944ddbb" font-size="30" font-weight="400" transform="matrix(1.44 -1.35 1.67 1.79 570.06 300.01)" class="color6a6868 svgShape colorStrokefff svgStroke"><path stroke="none" d="M-40.8-7.7399999c-.48-.42-.51-.81-1.44-.81-.57 0-1.38.15-2.01.39-1.59.51-2.97 1.71-4.14 3.66-1.17 1.95-1.77 3.95999998-1.77 6.06 0 1.95.54 3.6 1.62 4.95 1.2 1.53 3.03 2.55 5.52 3.03.36.09.75.12 1.17.12 2.1 0 4.05-.78 5.88-2.31 1.95-1.65 2.94-3.51 2.94-5.64 0-1.56000002-.54-3.06-1.62-4.5-1.2-1.65-3.06-3.18-5.58-4.62zm-.39 13.92c-1.68 1.05-2.31 1.26-3.03 1.26-.36 0-.72-.09-1.11-.24-1.08-.39-1.5-1.47-1.5-3.06 0-1.83.54-3.78000002 1.62-5.91 1.08-2.13 2.07-3.21 2.97-3.21 1.11 0 2.19.54 3.27 1.62 1.14 1.17 1.71 2.48999998 1.71 3.92999998 0 .99000002-.3 1.92000002-.9 2.82000002-.66.99-1.68 1.92-3.03 2.79zM-18.151406 8.8800001c-.06-.36-.78-.69-.6-1.62 0-.63.12-1.44.39-2.43.51-2.07.78-3.33.78-3.78 0-1.17000002-.42-2.07-1.53-2.79-.84-.51-1.8-.75-2.79-.75-.99 0-2.1.21-3.27.63-.9.33-1.71.72-2.4 1.16999998-.06 0-.09-.03-.12-.06 0-.09.03-.35999998.06-.74999998 0-.21-.03-.36-.12-.42-.45-.27-.9-.39-1.41-.39-.81 0-1.44.3-1.56.9-.15.62999998-.24 1.94999998-.33 3.9-.06 1.95-.09 3.99-.09 6.12 0 .24.93.54 2.76.93 1.05.21 1.71.36 2.01.4799999.06.03.12 0 .15-.03.03-.03.03-.09.03-.21-.33-1.38-.69-2.73-1.02-4.02-.33-1.29-.48-2.31-.48-3.03 0-.24.57-.72 1.74-1.47 1.26-.81000002 2.43-1.35000002 3.48-1.62000002.09-.03.18-.03.24-.03.27 0 .39.15.39.45-.81 2.55000002-1.71 5.13000002-1.71 7.02000002v.72c.06.66.57 1.11 1.5 1.38.03.03.87.15 2.52.36h.27c.51 0 1.08-.21 1.11-.66zM-9.2296872 9.0000001c-.57-1.47-.9899998-2.82-1.2299998-4.05-.21-.93-.3-1.8-.3-2.67 0-.27.03-.69.09-1.29000002.06-.63.09-.990000003706055.09-1.08 0-.27-.06-.51-.15-.66-.66-.83999998-1.5-1.25999998-2.52-1.25999998-.3 0-.63.06-.96.15-.33.09-.63.66-.96 1.76999998-.33 1.08-.48 2.28000002-.48 3.57000002 0 1.47.24 2.67.69 3.63.51 1.11 1.35 1.77 2.46 1.98.87.21 2.13.48 2.6399998.48.45 0 .66-.12.66-.36v-.09c0-.03 0-.09-.03-.12zm-.7799998-14.79c-.24-.93-1.26-1.41-2.34-1.41-1.05 0-2.04.51-2.04 1.53 0 .21.06.45.21.66.6.69 1.2.87 2.31.87.48 0 .93-.21 1.32-.6.42-.39.5999998-.75.54-1.05zM16.048594 6.1500001c.06-.24.09-.48.09-.69 0-.93-.93-1.5-2.76-1.65l-5.5199999-.3c-2.13-.27-3.42-.99-3.9-2.16-.15-.39000002-.15-.48000002-.15-1.05000002 0-1.11.45-2.36999998 1.35-3.74999998.87-1.29 1.5-1.98 1.83-2.07.36-.12.69-.12 1.02.03.33.12.72.54 1.11 1.23.39.69.63 1.62.69 2.79.09 1.13999998.4199999 2.00999998 1.0199999 2.61.42.33 1.05.51 1.86.51 1.17 0 1.59-.39 1.59-1.23000002 0-.45-.12-.78-.36-.99-.69-1.76999998-1.05-2.81999998-1.14-3.08999998-.42-1.32-.63-2.49-.63-3.51 0-.15-.09-.3-.27-.39l-.48-.27c-.39-.27-.93-.39-1.5599999-.39-1.29 0-2.85.45-4.65 1.32-1.8.87-3.3 1.95-4.53000004 3.18-1.35 1.38-2.03999996 2.7-2.03999996 3.95999998 0 1.29000002.68999996 2.37000002 2.06999996 3.27000002 1.59000004 1.05 4.08000004 1.8 7.44000004 2.25.27.03.42.12.42.27 0 .27-.45.63-1.35 1.02-.87.39-1.68.6-2.4.6-.48 0-1.02-.03-1.29-.9-.15-.45-.36-.72-.63-.81l-1.05-.33c-.21-.03-.39-.06-.57-.06-.75000004 0-.84000004.66-.84000004 1.26 0 1.11.66000004 1.95 1.98000004 2.55 1.23.57 2.76.8399999 4.62.8399999 2.13 0 4.0199999-.3599999 5.6999999-1.0499999 1.83-.75 2.94-1.74 3.33-3zM34.125938 8.0400001c.18-.15.27-.3.27-.51 0-.57-.69-1.26-1.29-1.5-.12-.03-.24-.06-.33-.06-.24 0-.69.15-1.35.48-.63.33-1.14.48-1.5.48-.69 0-1.62.06-2.79.21-2.37.3-3.75.45-4.14.45-.72 0-1.23-.09-1.56-.3-.42-.21-.63-.6-.63-1.14v-.12c-.06-.18.09-1.02 1.2-1.89.21-.18.99-.27 2.4-.27.54 0 1.44.03 2.73.06 1.29.03 2.22.06 2.79.06 1.47 0 2.43-.06 2.79-.27.27-.15.39-.48.39-.99 0-1.17-.48-2.31000002-1.41-3.42000002-1.14-1.37999998-2.61-2.06999998-4.38-2.06999998-1.77 0-3.78 1.02-5.97 3.08999998-2.19 2.04000002-3.3 3.84000002-3.3 5.40000002 0 .33.06.6.18.84.6 1.23 1.65 2.16 3.12 2.79 1.29.51 2.82.7799999 4.62.7799999 1.62 0 3.21-.2099999 4.74-.6299999 1.53-.39 2.67-.9 3.42-1.47zm-4.32-5.94c-.09.24-1.53.27-4.14.27h-2.16c-.12 0-.18-.03-.18-.09 0-.21.48-.63 1.41-1.26.96-.63000002 1.59-.99000002 1.89-1.020000023706055C27.255938-.11999992 27.615938-.14999992 27.945938-.14999992c.78 0 1.32.149999996293945 1.65.45.27.21.42.54.42.93000002 0 .15-.12.66-.21.87zM42.205782 9.2400001c.15-.09.24-.24.24-.39 0-.15-.12-.39-.33-.72-.21-.36-.33-.66-.36-.87-.45-1.95-.57-3.96-.57-6.36000002 0-.21 0-.96.03-2.24999998.03-1.29.06-2.16.06-2.67 0-1.53-.09-2.7-.3-3.21-.15-.57-1.26-.96-2.19-.96-.63 0-1.05.12-1.41.45-.69.9-.75 4.32-.75 10.08v4.74c0 .33.69.78 2.07 1.35 1.38.57 2.43.87 3.12.87.21 0 .33-.03.39-.06zM49.822969 9.2400001c.15-.09.24-.24.24-.39 0-.15-.12-.39-.33-.72-.21-.36-.33-.66-.36-.87-.45-1.95-.57-3.96-.57-6.36000002 0-.21 0-.96.03-2.24999998.03-1.29.06-2.16.06-2.67 0-1.53-.09-2.7-.3-3.21-.15-.57-1.26-.96-2.19-.96-.63 0-1.05.12-1.41.45-.69.9-.75 4.32-.75 10.08v4.74c0 .33.69.78 2.07 1.35 1.38.57 2.43.87 3.12.87.21 0 .33-.03.39-.06z"></path></g></svg></g></svg>