<?xml version="1.0" encoding="UTF-8" standalone="no"?>
<svg
   xmlns:dc="http://purl.org/dc/elements/1.1/"
   xmlns:cc="http://creativecommons.org/ns#"
   xmlns:rdf="http://www.w3.org/1999/02/22-rdf-syntax-ns#"
   xmlns:svg="http://www.w3.org/2000/svg"
   xmlns="http://www.w3.org/2000/svg"
   id="svg25"
   xml:space="preserve"
   viewBox="424.82000000000005 104.88999999999999 247.42850004493857 313.5"
   height="313.5"
   width="247.42850004493857"
   version="1.1"><metadata
   id="metadata29"><rdf:RDF><cc:Work
       rdf:about=""><dc:format>image/svg+xml</dc:format><dc:type
         rdf:resource="http://purl.org/dc/dcmitype/StillImage" /></cc:Work></rdf:RDF></metadata>
<desc
   id="desc2">Created by Logonomy.ir</desc>
<defs
   id="defs4">
</defs>


<g
   id="8dde7aaf-bf4f-47bc-b84d-2f26ec856fb1"
   transform="matrix(2.09,0,0,2.09,542.9,261.64)">
<g
   id="g17"
   style="vector-effect:non-scaling-stroke">
		<g
   id="Layer_1-2"
   transform="matrix(0.6,0,0,0.6,-8.24,-6.73)">
<path
   id="path6"
   d="m 60.36,92.64 a 37.18,37.18 0 0 0 -4.89,50.48 l 23.25,-20.5 9.08,-8 23.25,-20.5 A 37.19,37.19 0 0 0 60.36,92.64 Z"
   transform="translate(-79.42,-113.25)"
   style="opacity:1;fill:#7cdf7c;fill-rule:nonzero;stroke:none;stroke-width:1;stroke-linecap:butt;stroke-linejoin:miter;stroke-miterlimit:4;stroke-dasharray:none;stroke-dashoffset:0" />
</g>
		<g
   id="g11"
   transform="matrix(0.6,0,0,0.6,0.19,-0.02)">
<path
   id="path9"
   d="m 139.92,68.66 46.9,40.89 -8.69,-65.86 h -29.4 a 46.2,46.2 0 0 0 -92.27,0 H 27.06 L 0,248.82 H 80.5 L 26.6,168.57 48.66,149.12 a 46.2,46.2 0 0 1 69.2,-61 v 0 l 24,23.7 2.86,-2.15 -24.06,-24 z m -31.27,-25 h -43.1 a 37.13,37.13 0 0 1 74.09,0 z"
   transform="translate(-93.41,-124.38)"
   style="opacity:1;fill:#7cdf7c;fill-rule:nonzero;stroke:none;stroke-width:1;stroke-linecap:butt;stroke-linejoin:miter;stroke-miterlimit:4;stroke-dasharray:none;stroke-dashoffset:0" />
</g>
		<g
   id="g15"
   transform="matrix(0.6,0,0,0.6,-14.55,17.7)">
<path
   id="polygon13"
   d="m 13.49,11 -24.17,-24.14 -2.82,2.49 24.13,23.8 z"
   style="opacity:1;fill:#7cdf7c;fill-rule:nonzero;stroke:none;stroke-width:1;stroke-linecap:butt;stroke-linejoin:miter;stroke-miterlimit:4;stroke-dasharray:none;stroke-dashoffset:0" />
</g>
</g>
</g>
<g
   id="9ff5925f-b6c7-43a8-8d96-cb4385610da1"
   transform="matrix(1.44,-1.35,1.67,1.79,570.06,300.01)">
		<g
   id="text22"
   style="font-style:normal;font-weight:normal;font-size:30px;font-family:en_9944ddbb;white-space:pre;opacity:1;fill:#6a6868;fill-rule:nonzero;stroke:#ffffff;stroke-width:1;stroke-linecap:butt;stroke-linejoin:miter;stroke-miterlimit:4;stroke-dasharray:none;stroke-dashoffset:0;stroke-opacity:0"
   aria-label="Oni Sell"><path
     id="path32"
     style=""
     d="m -40.8,-7.7399999 c -0.48,-0.42 -0.51,-0.81 -1.44,-0.81 -0.57,0 -1.38,0.15 -2.01,0.39 -1.59,0.51 -2.97,1.71 -4.14,3.66 -1.17,1.95 -1.77,3.95999998 -1.77,6.06 0,1.95 0.54,3.6 1.62,4.95 1.2,1.53 3.03,2.55 5.52,3.03 0.36,0.09 0.75,0.12 1.17,0.12 2.1,0 4.05,-0.78 5.88,-2.31 1.95,-1.65 2.94,-3.51 2.94,-5.64 0,-1.56000002 -0.54,-3.06 -1.62,-4.5 -1.2,-1.65 -3.06,-3.18 -5.58,-4.62 z m -0.39,13.92 c -1.68,1.05 -2.31,1.26 -3.03,1.26 -0.36,0 -0.72,-0.09 -1.11,-0.24 -1.08,-0.39 -1.5,-1.47 -1.5,-3.06 0,-1.83 0.54,-3.78000002 1.62,-5.91 1.08,-2.13 2.07,-3.21 2.97,-3.21 1.11,0 2.19,0.54 3.27,1.62 1.14,1.17 1.71,2.48999998 1.71,3.92999998 0,0.99000002 -0.3,1.92000002 -0.9,2.82000002 -0.66,0.99 -1.68,1.92 -3.03,2.79 z" /><path
     id="path34"
     style=""
     d="m -18.151406,8.8800001 c -0.06,-0.36 -0.78,-0.69 -0.6,-1.62 0,-0.63 0.12,-1.44 0.39,-2.43 0.51,-2.07 0.78,-3.33 0.78,-3.78 0,-1.17000002 -0.42,-2.07 -1.53,-2.79 -0.84,-0.51 -1.8,-0.75 -2.79,-0.75 -0.99,0 -2.1,0.21 -3.27,0.63 -0.9,0.33 -1.71,0.72 -2.4,1.16999998 -0.06,0 -0.09,-0.03 -0.12,-0.06 0,-0.09 0.03,-0.35999998 0.06,-0.74999998 0,-0.21 -0.03,-0.36 -0.12,-0.42 -0.45,-0.27 -0.9,-0.39 -1.41,-0.39 -0.81,0 -1.44,0.3 -1.56,0.9 -0.15,0.62999998 -0.24,1.94999998 -0.33,3.9 -0.06,1.95 -0.09,3.99 -0.09,6.12 0,0.24 0.93,0.54 2.76,0.93 1.05,0.21 1.71,0.36 2.01,0.4799999 0.06,0.03 0.12,0 0.15,-0.03 0.03,-0.03 0.03,-0.09 0.03,-0.21 -0.33,-1.38 -0.69,-2.73 -1.02,-4.02 -0.33,-1.29 -0.48,-2.31 -0.48,-3.03 0,-0.24 0.57,-0.72 1.74,-1.47 1.26,-0.81000002 2.43,-1.35000002 3.48,-1.62000002 0.09,-0.03 0.18,-0.03 0.24,-0.03 0.27,0 0.39,0.15 0.39,0.45 -0.81,2.55000002 -1.71,5.13000002 -1.71,7.02000002 v 0.72 c 0.06,0.66 0.57,1.11 1.5,1.38 0.03,0.03 0.87,0.15 2.52,0.36 h 0.27 c 0.51,0 1.08,-0.21 1.11,-0.66 z" /><path
     id="path36"
     style=""
     d="m -9.2296872,9.0000001 c -0.57,-1.47 -0.9899998,-2.82 -1.2299998,-4.05 -0.21,-0.93 -0.3,-1.8 -0.3,-2.67 0,-0.27 0.03,-0.69 0.09,-1.29000002 0.06,-0.63 0.09,-0.990000003706055 0.09,-1.08 0,-0.27 -0.06,-0.51 -0.15,-0.66 -0.66,-0.83999998 -1.5,-1.25999998 -2.52,-1.25999998 -0.3,0 -0.63,0.06 -0.96,0.15 -0.33,0.09 -0.63,0.66 -0.96,1.76999998 -0.33,1.08 -0.48,2.28000002 -0.48,3.57000002 0,1.47 0.24,2.67 0.69,3.63 0.51,1.11 1.35,1.77 2.46,1.98 0.87,0.21 2.13,0.48 2.6399998,0.48 0.45,0 0.66,-0.12 0.66,-0.36 v -0.09 c 0,-0.03 0,-0.09 -0.03,-0.12 z m -0.7799998,-14.79 c -0.24,-0.93 -1.26,-1.41 -2.34,-1.41 -1.05,0 -2.04,0.51 -2.04,1.53 0,0.21 0.06,0.45 0.21,0.66 0.6,0.69 1.2,0.87 2.31,0.87 0.48,0 0.93,-0.21 1.32,-0.6 0.42,-0.39 0.5999998,-0.75 0.54,-1.05 z" /><path
     id="path38"
     style=""
     d="m 16.048594,6.1500001 c 0.06,-0.24 0.09,-0.48 0.09,-0.69 0,-0.93 -0.93,-1.5 -2.76,-1.65 l -5.5199999,-0.3 c -2.13,-0.27 -3.42,-0.99 -3.9,-2.16 -0.15,-0.39000002 -0.15,-0.48000002 -0.15,-1.05000002 0,-1.11 0.45,-2.36999998 1.35,-3.74999998 0.87,-1.29 1.5,-1.98 1.83,-2.07 0.36,-0.12 0.69,-0.12 1.02,0.03 0.33,0.12 0.72,0.54 1.11,1.23 0.39,0.69 0.63,1.62 0.69,2.79 0.09,1.13999998 0.4199999,2.00999998 1.0199999,2.61 0.42,0.33 1.05,0.51 1.86,0.51 1.17,0 1.59,-0.39 1.59,-1.23000002 0,-0.45 -0.12,-0.78 -0.36,-0.99 -0.69,-1.76999998 -1.05,-2.81999998 -1.14,-3.08999998 -0.42,-1.32 -0.63,-2.49 -0.63,-3.51 0,-0.15 -0.09,-0.3 -0.27,-0.39 l -0.48,-0.27 c -0.39,-0.27 -0.93,-0.39 -1.5599999,-0.39 -1.29,0 -2.85,0.45 -4.65,1.32 -1.8,0.87 -3.3,1.95 -4.53000004,3.18 -1.35,1.38 -2.03999996,2.7 -2.03999996,3.95999998 0,1.29000002 0.68999996,2.37000002 2.06999996,3.27000002 1.59000004,1.05 4.08000004,1.8 7.44000004,2.25 0.27,0.03 0.42,0.12 0.42,0.27 0,0.27 -0.45,0.63 -1.35,1.02 -0.87,0.39 -1.68,0.6 -2.4,0.6 -0.48,0 -1.02,-0.03 -1.29,-0.9 -0.15,-0.45 -0.36,-0.72 -0.63,-0.81 l -1.05,-0.33 c -0.21,-0.03 -0.39,-0.06 -0.57,-0.06 -0.75000004,0 -0.84000004,0.66 -0.84000004,1.26 0,1.11 0.66000004,1.95 1.98000004,2.55 1.23,0.57 2.76,0.8399999 4.62,0.8399999 2.13,0 4.0199999,-0.3599999 5.6999999,-1.0499999 1.83,-0.75 2.94,-1.74 3.33,-3 z" /><path
     id="path40"
     style=""
     d="m 34.125938,8.0400001 c 0.18,-0.15 0.27,-0.3 0.27,-0.51 0,-0.57 -0.69,-1.26 -1.29,-1.5 -0.12,-0.03 -0.24,-0.06 -0.33,-0.06 -0.24,0 -0.69,0.15 -1.35,0.48 -0.63,0.33 -1.14,0.48 -1.5,0.48 -0.69,0 -1.62,0.06 -2.79,0.21 -2.37,0.3 -3.75,0.45 -4.14,0.45 -0.72,0 -1.23,-0.09 -1.56,-0.3 -0.42,-0.21 -0.63,-0.6 -0.63,-1.14 v -0.12 c -0.06,-0.18 0.09,-1.02 1.2,-1.89 0.21,-0.18 0.99,-0.27 2.4,-0.27 0.54,0 1.44,0.03 2.73,0.06 1.29,0.03 2.22,0.06 2.79,0.06 1.47,0 2.43,-0.06 2.79,-0.27 0.27,-0.15 0.39,-0.48 0.39,-0.99 0,-1.17 -0.48,-2.31000002 -1.41,-3.42000002 -1.14,-1.37999998 -2.61,-2.06999998 -4.38,-2.06999998 -1.77,0 -3.78,1.02 -5.97,3.08999998 -2.19,2.04000002 -3.3,3.84000002 -3.3,5.40000002 0,0.33 0.06,0.6 0.18,0.84 0.6,1.23 1.65,2.16 3.12,2.79 1.29,0.51 2.82,0.7799999 4.62,0.7799999 1.62,0 3.21,-0.2099999 4.74,-0.6299999 1.53,-0.39 2.67,-0.9 3.42,-1.47 z m -4.32,-5.94 c -0.09,0.24 -1.53,0.27 -4.14,0.27 h -2.16 c -0.12,0 -0.18,-0.03 -0.18,-0.09 0,-0.21 0.48,-0.63 1.41,-1.26 0.96,-0.63000002 1.59,-0.99000002 1.89,-1.020000023706055 C 27.255938,-0.11999992 27.615938,-0.14999992 27.945938,-0.14999992 c 0.78,0 1.32,0.149999996293945 1.65,0.45 0.27,0.21 0.42,0.54 0.42,0.93000002 0,0.15 -0.12,0.66 -0.21,0.87 z" /><path
     id="path42"
     style=""
     d="m 42.205782,9.2400001 c 0.15,-0.09 0.24,-0.24 0.24,-0.39 0,-0.15 -0.12,-0.39 -0.33,-0.72 -0.21,-0.36 -0.33,-0.66 -0.36,-0.87 -0.45,-1.95 -0.57,-3.96 -0.57,-6.36000002 0,-0.21 0,-0.96 0.03,-2.24999998 0.03,-1.29 0.06,-2.16 0.06,-2.67 0,-1.53 -0.09,-2.7 -0.3,-3.21 -0.15,-0.57 -1.26,-0.96 -2.19,-0.96 -0.63,0 -1.05,0.12 -1.41,0.45 -0.69,0.9 -0.75,4.32 -0.75,10.08 v 4.74 c 0,0.33 0.69,0.78 2.07,1.35 1.38,0.57 2.43,0.87 3.12,0.87 0.21,0 0.33,-0.03 0.39,-0.06 z" /><path
     id="path44"
     style=""
     d="m 49.822969,9.2400001 c 0.15,-0.09 0.24,-0.24 0.24,-0.39 0,-0.15 -0.12,-0.39 -0.33,-0.72 -0.21,-0.36 -0.33,-0.66 -0.36,-0.87 -0.45,-1.95 -0.57,-3.96 -0.57,-6.36000002 0,-0.21 0,-0.96 0.03,-2.24999998 0.03,-1.29 0.06,-2.16 0.06,-2.67 0,-1.53 -0.09,-2.7 -0.3,-3.21 -0.15,-0.57 -1.26,-0.96 -2.19,-0.96 -0.63,0 -1.05,0.12 -1.41,0.45 -0.69,0.9 -0.75,4.32 -0.75,10.08 v 4.74 c 0,0.33 0.69,0.78 2.07,1.35 1.38,0.57 2.43,0.87 3.12,0.87 0.21,0 0.33,-0.03 0.39,-0.06 z" /></g>
</g>
</svg>